<svg version="1.0" xmlns="http://www.w3.org/2000/svg"  viewBox="0 0 438.000000 321.000000" >
	<g transform="translate(0.000000,321.000000) scale(0.100000,-0.100000)" stroke="none">
	<path d="M2675 2974 c-45 -23 -66 -45 -86 -89 -23 -49 -24 -94 -4 -143 11 -25 158 -179 468 -489 l452 -453 -1653 0 -1652 0 0 -190 0 -190 1647 0 1648 0 -447 -447 c-306 -306 -452 -460 -463 -485 -30 -74 -14 -148 46 -205 58 -54 138 -69 202 -37 44 22 1264 1240 1288 1286 21 41 25 101 9 145 -12 32 -1250 1276 -1292 1299 -36 19 -125 18 -163 -2z"/>
	</g>
</svg>
