<svg version="1.0" xmlns="http://www.w3.org/2000/svg" viewBox="0 0 560.000000 539.000000">
	<g transform="translate(0.000000,539.000000) scale(0.100000,-0.100000)" stroke="none">
	<path d="M972 4510 l-662 -530 0 -1850 0 -1850 1968 0 1967 0 533 666 532 667 0 1713 0 1714 -1838 0 -1837 0 -663 -530z m1718 -95 l-375 -375 -762 2 -762 3 466 373 466 372 671 0 671 0 -375 -375z m1820 0 l-375 -375 -730 0 -730 0 375 375 375 375 730 0 730 0 -375 -375z m178 -3181 l-373 -465 -3 1548 -2 1548 372 372 373 373 3 -1455 2 -1455 -372 -466z m-628 926 l0 -1630 -1752 2 -1753 3 -3 1628 -2 1627 1755 0 1755 0 0 -1630z"/>
	<path d="M1562 3273 c-40 -19 -62 -59 -62 -110 1 -47 18 -78 56 -104 28 -18 54 -19 719 -19 667 0 691 1 722 20 36 22 63 66 63 105 0 39 -27 83 -63 105 -31 19 -55 20 -717 20 -612 0 -689 -2 -718 -17z"/>
	</g>
</svg>
