<svg version="1.0" xmlns="http://www.w3.org/2000/svg" viewBox="0 0 466.000000 364.000000">
	<g transform="translate(0.000000,364.000000) scale(0.100000,-0.100000)"  stroke="none">
	<path d="M842 3329 c-181 -21 -295 -71 -397 -174 -108 -109 -155 -223 -175 -431 -13 -133 -13 -1749 0 -1884 20 -208 71 -334 178 -439 81 -80 167 -124 295 -154 91 -21 108 -21 1522 -25 951 -2 1467 0 1540 7 206 20 330 69 434 173 73 73 123 167 153 284 l23 89 0 1005 0 1005 -23 89 c-45 179 -145 312 -285 381 -85 41 -159 61 -282 75 -110 12 -2875 11 -2983 -1z m2998 -418 c81 -19 109 -37 130 -84 24 -54 40 -211 40 -388 l0 -139 -1664 0 c-916 0 -1667 4 -1670 8 -9 14 12 446 24 484 26 89 76 114 255 128 55 4 714 7 1465 5 1039 -1 1378 -5 1420 -14z m168 -1466 c4 -653 -8 -740 -112 -778 -92 -34 -335 -39 -1693 -34 -1392 4 -1383 4 -1451 54 -35 26 -48 54 -62 133 -11 71 -27 1027 -17 1054 6 15 137 16 1669 14 l1663 -3 3 -440z"/>
	<path d="M1238 1456 c-59 -21 -85 -42 -115 -93 -67 -114 -11 -259 116 -302 167 -56 326 123 252 285 -23 51 -81 99 -137 113 -54 14 -70 13 -116 -3z"/>
	</g>
</svg>
