 <svg version="1.0" xmlns="http://www.w3.org/2000/svg" viewBox="0 0 325.000000 326.000000">
	<g transform="translate(0.000000,326.000000) scale(0.100000,-0.100000)" stroke="none">
	<path d="M310 3059 c-90 -37 -129 -153 -77 -229 49 -72 56 -74 285 -80 l207 -5 42 -161 c23 -89 53 -184 67 -212 l26 -52 -35 -46 c-20 -26 -42 -58 -49 -73 -25 -48 -39 -148 -32 -229 10 -120 65 -430 90 -503 l22 -67 -43 -27 c-94 -59 -173 -179 -208 -315 -21 -78 -15 -141 18 -214 35 -75 80 -121 155 -158 l67 -33 910 0 c900 0 910 0 945 21 109 63 109 215 0 278 -34 21 -48 21 -907 24 -655 2 -873 5 -873 14 0 31 45 99 78 120 l37 23 665 6 c697 5 693 5 785 51 118 60 179 145 350 489 144 293 160 336 160 444 0 70 -4 87 -30 133 -34 63 -86 107 -158 134 -78 30 -272 37 -977 38 -596 0 -616 1 -648 20 -47 29 -67 69 -98 194 -52 213 -70 260 -124 319 -31 34 -70 63 -102 78 -50 23 -65 24 -288 26 -145 2 -245 -1 -260 -8z m2360 -973 c0 -8 -61 -135 -135 -284 -153 -305 -169 -326 -257 -337 -29 -3 -276 -5 -548 -3 -564 3 -545 1 -582 84 -24 56 -94 469 -85 506 4 16 17 30 34 36 18 7 310 11 801 11 653 1 772 -1 772 -13z"/>
	<path d="M1104 476 c-95 -42 -119 -180 -43 -255 64 -65 154 -65 222 -2 38 36 41 43 45 102 3 55 0 69 -20 98 -44 64 -131 88 -204 57z"/>
	<path d="M2384 471 c-110 -67 -106 -221 6 -279 79 -41 155 -19 208 59 31 44 28 129 -6 176 -43 61 -145 82 -208 44z"/>
	</g>
</svg>