<svg version="1.0" xmlns="http://www.w3.org/2000/svg" viewBox="0 0 359.000000 452.000000">
	<g transform="translate(0.000000,452.000000) scale(0.100000,-0.100000)" stroke="none">
	<path d="M1095 4223 c-128 -18 -312 -90 -432 -170 -170 -112 -327 -314 -396 -510 -57 -159 -57 -158 -57 -1124 l0 -889 205 0 204 0 3 887 3 888 28 80 c37 104 82 177 154 247 104 101 212 156 350 177 47 7 291 11 707 11 l636 0 0 205 0 205 -687 -1 c-379 -1 -701 -4 -718 -6z"/>
	<path d="M1687 3389 c-227 -16 -357 -66 -466 -177 -111 -113 -151 -216 -170 -439 -14 -158 -14 -1721 -1 -1873 21 -223 68 -337 185 -449 168 -160 262 -175 1025 -168 579 5 602 7 746 77 63 31 96 55 146 109 113 119 149 220 168 474 13 172 13 1610 0 1794 -18 244 -63 367 -178 480 -114 113 -230 154 -489 173 -158 11 -805 11 -966 -1z m1092 -431 c67 -20 89 -42 109 -109 14 -47 17 -166 20 -949 3 -916 -1 -1045 -35 -1117 -38 -80 -98 -88 -698 -88 -672 0 -677 2 -705 185 -17 106 -25 1419 -11 1710 11 245 19 291 59 332 47 51 121 56 707 54 419 -2 509 -5 554 -18z"/>
	</g>
</svg>
