<svg version="1.0" xmlns="http://www.w3.org/2000/svg" viewBox="0 0 502.000000 373.000000" >
	<g transform="translate(0.000000,373.000000) scale(0.100000,-0.100000)" stroke="none">
	<path d="M788 3389 c-229 -34 -431 -227 -483 -461 -14 -65 -15 -187 -13 -1108 3 -939 5 -1039 20 -1083 78 -219 228 -365 433 -417 77 -20 111 -20 1779 -20 1896 0 1761 -5 1907 71 139 72 254 217 294 369 23 84 22 2129 0 2214 -50 190 -195 344 -390 413 l-80 28 -1705 1 c-938 1 -1730 -2 -1762 -7z m3534 -226 c83 -39 147 -103 190 -190 28 -57 33 -79 36 -159 l4 -94 -2036 0 -2036 0 0 49 c0 195 105 354 273 412 49 18 138 18 1777 16 l1725 -2 67 -32z m228 -1626 c0 -773 1 -761 -62 -859 -41 -65 -99 -115 -177 -152 l-66 -31 -1720 0 -1720 0 -55 23 c-116 49 -203 140 -246 257 -18 47 -19 95 -22 744 -1 382 0 700 2 708 4 11 361 13 2036 13 l2030 0 0 -703z"/>
	<path d="M970 1845 l0 -95 775 0 775 0 0 95 0 95 -775 0 -775 0 0 -95z"/>
	</g>
</svg>
