<svg version="1.0" xmlns="http://www.w3.org/2000/svg" viewBox="0 0 419.000000 483.000000">
	<g transform="translate(0.000000,483.000000) scale(0.100000,-0.100000)" stroke="none">
	<path d="M1980 4583 c-54 -8 -149 -48 -220 -93 -41 -25 -334 -214 -650 -419 -508 -328 -583 -381 -647 -447 -78 -80 -118 -152 -150 -264 -17 -61 -18 -123 -18 -950 0 -989 -4 -934 72 -1084 68 -135 109 -166 818 -625 560 -363 652 -419 733 -448 58 -20 112 -33 142 -33 54 0 171 35 243 72 25 13 323 203 663 423 692 447 729 476 798 616 70 143 67 96 64 1105 l-3 909 -31 81 c-36 93 -89 170 -162 235 -53 47 -1247 825 -1338 872 -91 46 -214 66 -314 50z m231 -486 c433 -277 1019 -661 1019 -667 0 -6 -1138 -759 -1161 -768 -5 -2 -272 170 -594 382 l-587 386 154 99 c84 55 340 221 568 370 345 224 421 270 451 271 29 0 61 -16 150 -73z m-871 -1462 c267 -174 493 -324 503 -333 16 -14 17 -64 17 -775 0 -688 -1 -759 -16 -753 -9 3 -256 162 -550 353 -525 340 -534 347 -559 396 l-25 51 0 738 0 739 73 -49 c39 -27 290 -192 557 -367z m2080 -317 c0 -482 -4 -736 -11 -761 -6 -22 -25 -54 -42 -73 -27 -28 -1045 -696 -1084 -711 -11 -4 -13 138 -13 758 l0 764 568 372 c312 205 570 373 575 373 4 0 7 -325 7 -722z"/>
	</g>
</svg>
