<svg version="1.0" xmlns="http://www.w3.org/2000/svg" viewBox="0 0 477.000000 514.000000">
	<g transform="translate(0.000000,514.000000) scale(0.100000,-0.100000)" stroke="none">
	<path d="M330 2565 l0 -2225 1140 0 1140 0 0 95 0 95 -1042 2 -1043 3 -3 2033 -2 2032 1650 0 1650 0 0 -1160 0 -1160 95 0 95 0 0 1255 0 1255 -1840 0 -1840 0 0 -2225z"/>
	<path d="M1010 3825 l0 -95 1160 0 1160 0 0 95 0 95 -1160 0 -1160 0 0 -95z"/>
	<path d="M1010 2470 l0 -100 190 0 190 0 0 100 0 100 -190 0 -190 0 0 -100z"/>
	<path d="M1690 2470 l0 -100 820 0 820 0 0 100 0 100 -820 0 -820 0 0 -100z"/>
	<path d="M3480 2074 c-219 -42 -378 -122 -524 -263 -202 -196 -297 -419 -297 -696 0 -130 9 -194 43 -295 100 -308 338 -539 655 -637 81 -25 102 -27 263 -27 153 -1 185 2 254 22 369 106 637 403 702 776 21 116 14 288 -15 401 -23 86 -92 238 -141 310 -84 122 -239 255 -374 320 -134 64 -233 87 -396 90 -80 2 -156 1 -170 -1z m335 -209 c82 -21 208 -83 282 -138 122 -91 232 -256 275 -414 30 -113 30 -289 -1 -397 -61 -218 -208 -398 -406 -495 -122 -61 -189 -75 -340 -75 -156 -1 -219 14 -355 81 -81 40 -109 60 -190 142 -106 106 -158 193 -202 331 -20 65 -23 95 -22 220 0 130 3 153 27 225 91 271 305 467 577 526 101 22 260 20 355 -6z"/>
	<path d="M3750 1238 c-127 -150 -237 -272 -244 -272 -7 1 -76 49 -154 107 -77 59 -145 108 -151 109 -5 2 -34 -30 -65 -71 l-55 -74 224 -168 c124 -93 229 -169 234 -169 9 0 596 690 590 694 -2 1 -34 28 -70 59 -36 31 -69 57 -72 57 -4 0 -110 -123 -237 -272z"/>
	<path d="M1010 1890 l0 -100 190 0 190 0 0 100 0 100 -190 0 -190 0 0 -100z"/>
	<path d="M1690 1890 l0 -100 480 0 480 0 0 100 0 100 -480 0 -480 0 0 -100z"/>
	<path d="M1010 1305 l0 -95 190 0 190 0 0 95 0 95 -190 0 -190 0 0 -95z"/>
	<path d="M1690 1305 l0 -95 385 0 385 0 0 95 0 95 -385 0 -385 0 0 -95z"/>
	</g>
</svg>
