<svg version="1.0" xmlns="http://www.w3.org/2000/svg" viewBox="0 0 443.000000 443.000000">
	<g transform="translate(0.000000,443.000000) scale(0.100000,-0.100000)" stroke="none">
	<path d="M230 3230 l0 -940 205 0 205 0 0 580 c0 319 3 580 8 580 4 0 399 -392 877 -871 596 -597 883 -877 910 -890 154 -72 329 76 285 241 -11 41 -84 118 -898 933 l-887 887 583 0 582 0 0 210 0 210 -935 0 -935 0 0 -940z"/>
	<path d="M2860 3945 c-171 -78 -171 -315 -1 -388 15 -6 142 -14 296 -18 350 -9 401 -22 502 -132 55 -59 79 -109 95 -193 19 -98 19 -2047 0 -2179 -33 -235 -98 -325 -268 -369 -130 -33 -273 -37 -1294 -34 -939 3 -1009 5 -1059 22 -71 23 -117 53 -168 108 -87 96 -101 158 -109 488 -6 277 -12 308 -74 364 -94 84 -218 69 -304 -37 l-31 -39 0 -291 c1 -326 11 -411 66 -544 77 -184 249 -353 435 -425 165 -64 151 -63 1309 -63 948 0 1062 2 1172 18 241 34 382 96 508 222 125 125 179 236 217 445 25 140 37 567 37 1290 0 664 -10 1013 -34 1125 -34 162 -93 272 -210 390 -196 199 -335 243 -790 251 -224 4 -265 3 -295 -11z"/>
	</g>
</svg>
