<svg version="1.0" xmlns="http://www.w3.org/2000/svg" viewBox="0 0 335.000000 323.000000">
	<g transform="translate(0.000000,323.000000) scale(0.100000,-0.100000)"  stroke="none">
	<path d="M1290 3015 c-505 -92 -917 -506 -1005 -1009 -22 -129 -20 -343 5 -467 51 -251 159 -450 344 -635 189 -189 401 -301 661 -349 137 -26 396 -17 527 18 132 35 268 96 383 172 l95 63 15 -32 c9 -18 129 -145 268 -283 211 -210 259 -253 294 -264 83 -24 170 25 193 109 22 83 15 93 -272 378 -145 144 -273 267 -285 273 -22 11 -21 12 34 94 144 211 213 438 213 704 0 608 -426 1117 -1029 1228 -103 19 -336 19 -441 0z m415 -314 c365 -75 651 -362 727 -731 26 -123 20 -317 -12 -429 -92 -322 -325 -559 -647 -658 -81 -25 -102 -27 -258 -27 -156 0 -177 2 -258 27 -169 52 -306 135 -418 255 -113 119 -177 229 -226 388 -25 82 -27 102 -27 259 0 156 2 177 27 258 62 200 170 360 329 483 63 49 180 115 248 140 150 54 356 68 515 35z"/>
	</g>
</svg>
