<svg version="1.0" xmlns="http://www.w3.org/2000/svg" viewBox="0 0 394.000000 326.000000" >
	<g transform="translate(0.000000,326.000000) scale(0.100000,-0.100000)" stroke="none">
	<path d="M910 3140 c-195 -10 -292 -29 -400 -82 -92 -45 -187 -141 -232 -238 -79 -165 -87 -286 -87 -1205 0 -916 9 -1039 88 -1200 43 -88 128 -180 211 -228 72 -42 207 -75 347 -87 165 -13 2136 -13 2298 0 218 18 357 73 463 184 117 122 157 246 172 536 12 243 12 1352 0 1595 -11 210 -30 308 -80 412 -59 119 -176 220 -306 263 -152 51 -167 52 -1269 55 -566 2 -1109 -1 -1205 -5z m2305 -432 c99 -27 129 -82 137 -257 l3 -54 -650 -361 -649 -361 -71 0 -71 0 -649 361 -650 361 3 64 c7 154 38 219 115 240 91 24 212 27 1297 25 1002 -2 1132 -4 1185 -18z m-2039 -1098 c365 -203 583 -318 629 -333 93 -29 260 -30 354 -3 41 13 262 130 628 333 310 172 566 313 569 313 9 0 3 -1099 -6 -1183 -12 -104 -33 -160 -67 -182 -64 -42 -124 -44 -1291 -45 -1150 0 -1217 2 -1293 41 -81 41 -89 118 -89 816 0 304 2 553 3 553 2 0 255 -140 563 -310z"/>
	</g>
</svg>
