<svg version="1.0" xmlns="http://www.w3.org/2000/svg" viewBox="0 0 446.000000 480.000000">
	<g transform="translate(0.000000,480.000000) scale(0.100000,-0.100000)" stroke="none">
	<path d="M1960 4514 c-196 -28 -399 -93 -590 -189 -386 -194 -685 -498 -875 -890 -267 -549 -260 -1180 19 -1750 125 -255 274 -461 501 -694 289 -296 650 -566 980 -732 258 -130 364 -105 813 188 347 226 641 487 863 764 551 690 668 1521 315 2236 -287 581 -825 973 -1467 1067 -132 20 -425 20 -559 0z m567 -493 c290 -60 533 -190 744 -401 215 -214 345 -457 406 -756 14 -68 18 -135 18 -284 -1 -178 -3 -206 -29 -314 -123 -526 -482 -983 -1098 -1397 -128 -86 -305 -189 -326 -189 -20 0 -160 82 -319 186 -442 291 -783 650 -967 1019 -368 739 -121 1580 581 1981 145 83 345 148 533 174 104 14 341 4 457 -19z"/>
	<path d="M2100 3553 c-400 -66 -718 -364 -807 -756 -11 -49 -16 -117 -16 -212 0 -118 4 -155 26 -236 80 -303 313 -563 599 -668 128 -48 178 -55 343 -55 188 0 263 16 413 89 116 56 167 90 258 177 124 118 216 272 266 444 20 69 23 101 23 254 0 153 -3 185 -23 255 -89 310 -324 560 -619 661 -54 18 -127 38 -163 43 -63 10 -248 13 -300 4z m241 -487 c166 -35 305 -157 360 -313 120 -342 -171 -697 -525 -643 -85 13 -194 62 -255 116 -99 86 -161 226 -161 363 0 138 47 251 144 346 71 69 145 110 237 129 83 19 119 19 200 2z"/>
	</g>
</svg>
