<svg version="1.0" xmlns="http://www.w3.org/2000/svg" viewBox="0 0 523.000000 508.000000">
	<g transform="translate(0.000000,508.000000) scale(0.100000,-0.100000)" stroke="none">
	<path d="M3357 4588 c-46 -68 -256 -377 -467 -688 -210 -311 -388 -570 -394 -577 -6 -7 -119 -30 -251 -52 -132 -22 -274 -49 -316 -60 -102 -26 -192 -73 -240 -124 -21 -23 -195 -280 -385 -572 -190 -291 -350 -534 -355 -539 -5 -6 -13 3 -20 22 -6 18 -15 32 -19 32 -11 0 -702 -188 -706 -192 -2 -3 483 -1629 489 -1634 4 -4 701 187 709 195 3 3 -9 56 -28 116 -18 61 -34 113 -34 116 0 4 10 9 23 11 12 3 137 38 277 77 140 40 340 95 444 122 105 27 215 61 245 75 43 19 92 61 216 184 l160 160 225 -150 c123 -82 225 -148 226 -147 1 1 417 603 926 1338 l924 1335 -774 535 c-426 294 -778 535 -782 537 -5 2 -46 -52 -93 -120z m764 -575 c405 -279 616 -430 610 -437 -5 -6 -370 -533 -811 -1171 -441 -638 -806 -1164 -810 -1168 -4 -5 -69 32 -144 82 l-136 91 78 108 c43 59 171 236 285 393 l206 286 79 7 c159 13 283 69 385 174 179 186 206 429 76 692 -45 91 -64 117 -143 196 -59 59 -119 107 -171 137 -302 177 -655 148 -854 -70 -84 -90 -124 -178 -140 -305 -16 -121 8 -246 70 -373 l30 -60 -78 -70 c-42 -38 -120 -109 -171 -157 -52 -49 -98 -88 -103 -88 -8 0 -228 107 -238 116 -4 3 141 239 318 514 186 290 1026 1530 1038 1530 3 0 283 -192 624 -427z m-723 -718 c135 -43 265 -141 341 -258 148 -229 99 -492 -111 -596 -90 -46 -93 -44 -93 42 -1 87 -22 133 -88 194 -55 50 -118 84 -216 113 -110 34 -202 20 -303 -47 -25 -17 -42 -23 -48 -17 -22 22 -53 133 -58 205 -13 206 118 360 333 393 57 8 165 -4 243 -29z m-1064 -217 c-4 -7 -71 -114 -149 -238 -201 -320 -318 -517 -312 -527 3 -5 121 -64 261 -132 205 -98 261 -121 284 -116 17 3 82 57 167 137 156 146 356 316 440 373 42 29 64 38 97 38 96 1 238 -85 223 -135 -11 -37 -81 -140 -408 -593 -299 -415 -315 -436 -476 -598 -91 -92 -180 -177 -197 -187 -17 -11 -125 -45 -240 -75 -115 -30 -328 -88 -474 -129 -145 -42 -265 -74 -266 -73 -1 1 -63 203 -136 449 l-135 446 395 604 c216 331 405 615 419 630 46 49 120 71 428 127 74 13 87 13 79 -1z m-1534 -1315 c5 -21 90 -306 189 -633 98 -327 178 -596 177 -597 -5 -6 -339 -94 -343 -90 -2 3 -89 287 -192 632 -141 469 -185 628 -175 632 14 5 315 90 326 92 4 1 12 -16 18 -36z"/>
	<path d="M3885 3881 c-48 -29 -67 -57 -72 -105 -17 -146 149 -221 246 -111 41 47 48 91 23 149 -35 79 -127 110 -197 67z"/>
	</g>
</svg>
