<svg version="1.0" xmlns="http://www.w3.org/2000/svg" viewBox="0 0 469.000000 444.000000">
	<g transform="translate(0.000000,444.000000) scale(0.100000,-0.100000)"  stroke="none">
	<path d="M980 4237 c-87 -29 -153 -80 -238 -180 -176 -208 -282 -427 -334 -692 -31 -156 -31 -385 0 -543 36 -181 111 -369 203 -513 65 -101 450 -607 555 -729 134 -157 451 -472 608 -606 198 -166 693 -534 798 -591 121 -67 265 -120 408 -150 149 -32 402 -36 549 -9 193 35 403 119 561 224 106 71 231 182 274 245 104 150 100 359 -8 504 -24 32 -189 203 -368 380 -306 304 -328 324 -401 359 -134 63 -292 58 -417 -13 -25 -14 -97 -77 -161 -140 l-115 -113 -110 65 c-341 204 -673 538 -874 877 l-60 102 113 115 c63 64 126 136 140 161 70 122 76 280 16 411 -31 70 -51 92 -358 403 -180 181 -352 348 -384 372 -111 83 -265 106 -397 61z m432 -724 c159 -159 288 -292 288 -297 0 -5 -62 -73 -139 -151 -160 -163 -183 -206 -184 -330 0 -84 18 -133 98 -277 143 -256 285 -441 514 -668 224 -223 449 -391 701 -523 122 -65 197 -83 279 -67 100 19 138 44 281 185 75 74 140 135 146 135 5 0 140 -131 299 -290 l290 -290 -30 -25 c-126 -106 -278 -187 -425 -227 -74 -20 -107 -23 -260 -22 -160 0 -182 2 -265 27 -160 48 -256 104 -514 297 -387 289 -557 435 -773 659 -174 180 -287 317 -524 633 -306 406 -348 506 -349 813 0 205 17 281 100 450 45 92 157 255 175 255 3 0 134 -129 292 -287z"/>
	</g>
</svg>
