<svg version="1.0" xmlns="http://www.w3.org/2000/svg" viewBox="0 0 758.000000 693.000000">
<g transform="translate(0.000000,693.000000) scale(0.100000,-0.100000)" stroke="none">
<path d="M2628 6635 c-28 -9 -68 -35 -102 -66 -71 -64 -100 -135 -93 -224 19 -246 309 -355 483 -180 173 173 61 464 -185 481 -33 2 -75 -2 -103 -11z"/>
<path d="M4622 6632 c-70 -26 -124 -73 -165 -147 -33 -61 -31 -182 5 -251 49 -93 126 -144 229 -152 95 -7 159 17 225 83 82 82 105 189 64 299 -53 141 -217 218 -358 168z"/>
<path d="M2423 5217 l-123 -62 36 -59 c54 -90 117 -169 211 -261 249 -248 565 -404 924 -456 107 -15 379 -16 485 0 360 52 679 209 928 456 84 83 173 194 219 275 l26 46 -125 62 c-70 35 -128 62 -129 60 -2 -2 -26 -37 -53 -78 -28 -41 -88 -112 -134 -158 -191 -190 -418 -310 -698 -369 -121 -26 -430 -25 -550 0 -204 44 -387 123 -542 234 -97 70 -239 215 -298 306 -24 37 -47 67 -50 66 -3 0 -60 -28 -127 -62z"/>
<path d="M1376 4801 l-409 -187 -25 -45 c-14 -24 -198 -320 -409 -657 l-382 -612 62 -28 c34 -15 194 -86 354 -158 l293 -129 0 -861 0 -861 1398 -515 c768 -284 1411 -522 1428 -529 28 -11 41 -8 145 33 63 25 705 263 1426 528 l1313 483 2 860 3 859 380 152 c209 84 388 155 398 159 14 5 -68 121 -476 665 l-494 658 -367 182 c-201 100 -369 183 -373 184 -6 3 -132 -228 -133 -242 0 -3 92 -52 205 -110 112 -58 205 -107 205 -110 0 -3 -496 -198 -1103 -433 l-1102 -428 -1132 428 c-623 235 -1129 431 -1125 435 4 4 104 50 222 104 118 53 219 100 224 105 10 9 -95 252 -110 255 -5 1 -193 -82 -418 -185z m954 -923 c641 -242 1166 -442 1168 -443 3 -2 -542 -880 -554 -894 -2 -3 -424 145 -937 328 -732 262 -986 356 -1182 443 -137 61 -252 112 -254 114 -2 1 124 206 279 454 224 359 286 450 299 445 9 -4 540 -205 1181 -447z m4240 11 c182 -242 333 -446 336 -453 7 -18 -453 -198 -1459 -571 -484 -179 -882 -325 -887 -325 -9 0 -615 880 -615 893 0 9 2254 893 2282 896 7 1 162 -197 343 -440z m-2405 -1289 c153 -223 279 -406 279 -407 1 -1 407 148 901 331 495 183 910 336 923 340 l22 7 0 -703 0 -704 -1197 -441 c-659 -243 -1206 -445 -1215 -448 -17 -7 -18 56 -18 1231 0 1042 2 1235 13 1219 8 -11 139 -202 292 -425z m-598 -2026 c-1 -2 -548 198 -1215 444 l-1212 446 0 704 0 704 23 -6 c12 -3 443 -156 957 -340 880 -315 936 -334 950 -317 8 10 123 191 255 403 l240 384 3 -1209 c1 -666 1 -1212 -1 -1213z"/>
</g>
</svg>
