<svg version="1.0" xmlns="http://www.w3.org/2000/svg" viewBox="0 0 406.000000 353.000000">
	<g transform="translate(0.000000,353.000000) scale(0.100000,-0.100000)" stroke="none">
	<path d="M3620 3287 c-25 -8 -616 -250 -1315 -539 -698 -289 -1442 -597 -1653 -683 -230 -95 -403 -172 -434 -194 -66 -46 -94 -98 -79 -143 22 -61 45 -75 250 -142 507 -167 607 -189 746 -168 42 7 90 19 108 28 18 9 358 236 757 504 399 268 754 504 790 523 74 40 140 60 165 51 28 -11 14 -82 -28 -146 -36 -54 -454 -462 -889 -867 -120 -112 -227 -218 -239 -237 -27 -45 -28 -108 -1 -160 36 -71 202 -194 774 -575 431 -287 485 -317 619 -338 127 -21 226 32 268 143 22 60 306 1825 411 2554 35 244 26 325 -41 373 -40 29 -139 36 -209 16z"/>
	</g>
</svg>
