<svg version="1.0" xmlns="http://www.w3.org/2000/svg" viewBox="0 0 443.000000 461.000000">
	<g transform="translate(0.000000,461.000000) scale(0.100000,-0.100000)" stroke="none">
	<path d="M2050 4289 c-301 -29 -454 -134 -438 -301 14 -145 168 -222 311 -154 68 32 158 46 297 46 140 0 235 -15 294 -46 137 -72 295 6 313 153 15 131 -87 233 -277 277 -137 32 -330 41 -500 25z"/>
	<path d="M350 3256 l0 -203 128 -5 c137 -6 172 -15 215 -56 66 -62 61 11 68 -1062 4 -674 9 -997 18 -1045 49 -293 199 -456 476 -518 99 -22 108 -22 965 -22 852 0 867 0 963 22 281 62 429 224 478 523 8 54 14 353 18 1045 7 1068 2 996 68 1056 48 45 71 51 210 57 l133 5 0 203 0 204 -1870 0 -1870 0 0 -204z m2936 -238 c-21 -101 -26 -285 -26 -1083 0 -561 -4 -911 -11 -965 -15 -119 -38 -159 -109 -185 -53 -19 -80 -20 -915 -20 -786 0 -865 1 -916 17 -67 21 -87 42 -107 110 -14 46 -17 190 -22 1048 -6 850 -9 1003 -22 1053 l-15 57 1075 0 1075 0 -7 -32z"/>
	<path d="M1720 2405 c-46 -21 -78 -51 -101 -97 -18 -35 -19 -63 -19 -406 0 -367 0 -369 23 -413 60 -113 217 -141 314 -56 72 63 73 69 73 468 l0 355 -25 51 c-36 72 -89 106 -169 110 -40 2 -73 -2 -96 -12z"/>
	<path d="M2539 2397 c-24 -13 -57 -43 -74 -66 l-30 -43 -3 -366 c-3 -414 -2 -423 68 -486 84 -76 202 -72 284 10 55 55 56 62 56 459 0 340 -1 368 -19 403 -53 103 -180 143 -282 89z"/>
	</g>
</svg>
