<svg version="1.0" xmlns="http://www.w3.org/2000/svg" viewBox="0 0 684.000000 538.000000">
<g transform="translate(0.000000,538.000000) scale(0.100000,-0.100000)" stroke="none">
<path d="M280 4795 l0 -125 1766 -2 1766 -3 33 -37 c18 -20 39 -53 47 -75 10 -31 13 -363 16 -1715 l2 -1678 -632 0 -633 0 -17 73 c-42 173 -159 343 -304 437 -178 116 -455 147 -679 76 -227 -72 -402 -264 -465 -511 l-18 -70 -268 -3 c-287 -3 -309 0 -344 46 -19 24 -20 43 -20 613 l0 589 -125 0 -126 0 3 -617 3 -618 26 -55 c34 -73 99 -136 179 -174 l65 -31 304 -5 303 -5 18 -71 c51 -199 184 -375 350 -463 230 -122 556 -115 779 18 145 86 276 270 319 448 l17 73 951 0 951 0 12 -56 c42 -188 171 -372 327 -466 133 -82 318 -118 499 -98 128 13 188 31 288 82 173 90 287 243 337 451 11 43 20 80 22 81 2 1 35 8 75 14 240 39 388 183 423 410 7 45 10 315 8 783 l-4 714 -27 138 c-66 334 -183 587 -351 765 -143 151 -292 236 -506 289 -56 14 -163 17 -777 20 l-713 4 0 217 c-1 139 -6 245 -14 294 -25 135 -84 237 -177 300 -105 72 23 68 -1931 68 l-1758 0 0 -125z m4512 -1578 l3 -574 43 -85 c48 -98 110 -162 204 -209 116 -58 123 -59 710 -59 l538 0 0 -458 c0 -488 -2 -515 -49 -581 -27 -38 -115 -81 -171 -84 l-43 -2 -18 70 c-10 39 -39 113 -65 165 -39 79 -61 109 -133 180 -147 146 -293 201 -526 201 -233 0 -381 -56 -526 -201 -71 -71 -94 -101 -133 -180 -25 -52 -54 -128 -64 -167 l-17 -73 -192 0 -193 0 0 1315 0 1315 315 0 314 0 3 -573z m833 549 c102 -28 235 -99 306 -165 70 -64 148 -169 197 -266 92 -183 162 -488 162 -704 l0 -91 -529 0 c-572 0 -575 0 -647 55 -17 13 -43 46 -55 72 l-24 48 -3 538 -3 539 268 -5 c208 -3 281 -8 328 -21z m-3552 -2253 c194 -53 327 -247 329 -480 1 -184 -101 -371 -242 -443 -110 -56 -294 -72 -415 -36 -183 54 -296 188 -332 394 -15 84 -15 97 1 179 38 193 139 322 296 378 101 36 247 39 363 8z m3377 0 c161 -44 277 -172 321 -353 17 -69 16 -198 0 -270 -42 -178 -149 -294 -311 -336 -98 -26 -266 -24 -350 5 -159 54 -266 179 -310 361 -48 197 39 434 197 539 113 75 299 97 453 54z"/>
<path d="M280 4295 l0 -125 1125 0 1125 0 0 125 0 125 -1125 0 -1125 0 0 -125z"/>
<path d="M280 3790 l0 -120 935 0 935 0 0 120 0 120 -935 0 -935 0 0 -120z"/>
<path d="M280 3285 l0 -125 750 0 750 0 0 125 0 125 -750 0 -750 0 0 -125z"/>
<path d="M280 2785 l0 -125 560 0 560 0 0 125 0 125 -560 0 -560 0 0 -125z"/>
</g>
</svg>
