<svg version="1.0" xmlns="http://www.w3.org/2000/svg" viewBox="0 0 472.000000 436.000000">
	<g transform="translate(0.000000,436.000000) scale(0.100000,-0.100000)" stroke="none">
	<path d="M2150 4135 c-357 -49 -702 -198 -980 -422 -89 -72 -257 -243 -321 -328 -356 -466 -488 -1051 -363 -1614 34 -151 82 -289 155 -441 l60 -125 -137 -498 c-75 -273 -134 -500 -131 -503 3 -3 236 55 518 129 l514 134 100 -48 c735 -351 1622 -206 2209 360 410 396 625 925 603 1486 -11 283 -67 512 -186 760 -106 221 -193 346 -366 524 -321 330 -710 527 -1162 586 -137 18 -382 18 -513 0z m490 -330 c653 -93 1192 -571 1353 -1200 42 -166 51 -241 51 -420 -1 -292 -68 -550 -205 -790 -240 -422 -642 -711 -1123 -807 -150 -30 -441 -32 -591 -4 -182 33 -425 125 -576 216 l-35 22 -305 -80 c-167 -44 -306 -79 -307 -77 -2 2 33 137 78 300 l81 296 -39 62 c-184 291 -275 663 -244 999 20 217 67 388 162 583 182 373 497 659 890 810 243 93 547 127 810 90z"/>
	<path d="M1655 3085 c-88 -31 -210 -207 -236 -343 -16 -83 -6 -219 21 -302 64 -194 233 -435 469 -670 226 -225 386 -331 653 -434 197 -76 219 -80 369 -81 l136 0 94 47 c71 35 109 62 151 106 63 66 85 119 94 237 6 61 4 72 -13 88 -36 32 -436 217 -470 217 -29 0 -41 -12 -128 -119 -93 -117 -119 -138 -160 -132 -38 6 -208 91 -290 146 -145 96 -300 258 -394 411 -45 74 -41 94 28 172 61 69 101 137 101 171 0 21 -167 426 -190 460 -26 39 -158 53 -235 26z"/>
	</g>
</svg>
